<?xml version="1.0" encoding="utf-8"?>
<!-- Generator: Adobe Illustrator 17.1.0, SVG Export Plug-In . SVG Version: 6.00 Build 0)  -->
<!DOCTYPE svg PUBLIC "-//W3C//DTD SVG 1.1//EN" "http://www.w3.org/Graphics/SVG/1.1/DTD/svg11.dtd">
<svg version="1.1" xmlns="http://www.w3.org/2000/svg" xmlns:xlink="http://www.w3.org/1999/xlink" x="0px" y="0px"
	 viewBox="0 0 512 512" enable-background="new 0 0 512 512" xml:space="preserve">
<g id="Facebook">
	<path d="M483.466,0H28.098C12.491,0,0,12.773,0,28.378v455.37C0,499.35,12.491,512,28.098,512H256V333h-64v-77h64v-57.447
		c0-66.115,40.395-102.115,99.374-102.115c28.25,0,54.626,2.103,60.626,3.043v69.094l-41.811,0.019
		c-32.075,0-38.189,15.242-38.189,37.609V256h80.026l0.039,77H336v179h147.466C499.067,512,512,499.35,512,483.748V28.378
		C512,12.773,499.067,0,483.466,0z"/>
</g>
</svg>
