<?xml version="1.0" encoding="utf-8"?>
<!-- Generator: Adobe Illustrator 17.1.0, SVG Export Plug-In . SVG Version: 6.00 Build 0)  -->
<!DOCTYPE svg PUBLIC "-//W3C//DTD SVG 1.1//EN" "http://www.w3.org/Graphics/SVG/1.1/DTD/svg11.dtd">
<svg version="1.1" id="flickr" xmlns="http://www.w3.org/2000/svg" xmlns:xlink="http://www.w3.org/1999/xlink" x="0px" y="0px"
	 viewBox="0 0 512 512" enable-background="new 0 0 512 512" xml:space="preserve">
<path fill="#231F20" d="M474.072,0H37.767C16.938,0,0,16.775,0,37.138v438.166C0,495.695,16.938,512,37.767,512h436.305
	c20.87,0,37.928-16.305,37.928-36.696V37.138C512,16.775,494.942,0,474.072,0z M144,336c-44.183,0-80-35.817-80-80
	c0-44.183,35.817-80,80-80c44.183,0,80,35.817,80,80C224,300.183,188.183,336,144,336z M368,336c-44.183,0-80-35.817-80-80
	c0-44.183,35.817-80,80-80s80,35.817,80,80C448,300.183,412.183,336,368,336z"/>
</svg>
