<?xml version="1.0" encoding="utf-8"?>
<!-- Generator: Adobe Illustrator 17.1.0, SVG Export Plug-In . SVG Version: 6.00 Build 0)  -->
<!DOCTYPE svg PUBLIC "-//W3C//DTD SVG 1.1//EN" "http://www.w3.org/Graphics/SVG/1.1/DTD/svg11.dtd">
<svg version="1.1" xmlns="http://www.w3.org/2000/svg" xmlns:xlink="http://www.w3.org/1999/xlink" x="0px" y="0px"
	 viewBox="0 0 512 512" enable-background="new 0 0 512 512" xml:space="preserve">
<g id="Layer_11">
	<path fill-rule="evenodd" clip-rule="evenodd" fill="#181616" d="M255.983,6.25C114.628,6.25,0,120.864,0,262.265
		C0,375.359,73.345,471.31,175.081,505.166c12.8,2.348,17.473-5.555,17.473-12.34c0-6.077-0.222-22.176-0.346-43.54
		c-71.211,15.47-86.236-34.317-86.236-34.317c-11.641-29.574-28.423-37.447-28.423-37.447c-23.243-15.884,1.759-15.562,1.759-15.562
		c25.69,1.81,39.212,26.382,39.212,26.382c22.836,39.121,59.916,27.824,74.503,21.271c2.326-16.544,8.939-27.824,16.253-34.224
		c-56.846-6.461-116.608-28.423-116.608-126.523c0-27.947,9.975-50.799,26.35-68.694c-2.632-6.476-11.417-32.505,2.51-67.75
		c0,0,21.494-6.883,70.398,26.243c20.419-5.678,42.319-8.518,64.09-8.617c21.739,0.099,43.641,2.939,64.09,8.617
		c48.874-33.127,70.329-26.243,70.329-26.243c13.966,35.245,5.18,61.274,2.547,67.75c16.407,17.895,26.314,40.747,26.314,68.694
		c0,98.345-59.854,119.985-116.885,126.324c9.192,7.903,17.38,23.528,17.38,47.408c0,34.224-0.314,61.835-0.314,70.228
		c0,6.846,4.611,14.81,17.603,12.31C438.717,471.218,512,375.329,512,262.265C512,120.864,397.37,6.25,255.983,6.25z"/>
</g>
</svg>
