<?xml version="1.0" encoding="utf-8"?>
<!-- Generator: Adobe Illustrator 17.1.0, SVG Export Plug-In . SVG Version: 6.00 Build 0)  -->
<!DOCTYPE svg PUBLIC "-//W3C//DTD SVG 1.1//EN" "http://www.w3.org/Graphics/SVG/1.1/DTD/svg11.dtd">
<svg version="1.1" xmlns="http://www.w3.org/2000/svg" xmlns:xlink="http://www.w3.org/1999/xlink" x="0px" y="0px"
	 viewBox="0 0 512 512" enable-background="new 0 0 512 512" xml:space="preserve">
<g id="Google_Plus">
	<path d="M243.36,24c4.198,3,8.923,6.663,14.174,11.683c5.036,5.245,9.976,11.796,14.804,19.444
		c4.619,7.207,8.711,15.779,12.285,25.608c2.936,9.832,4.407,21.325,4.407,34.436c-0.395,24.031-5.675,43.265-15.838,57.68
		c-4.985,6.995-10.265,13.442-15.844,19.342c-6.173,5.897-12.748,11.913-19.724,18.025c-3.983,4.153-7.67,8.847-11.055,14.089
		c-3.983,5.463-5.977,11.798-5.977,19.009c0,6.992,2.043,12.777,6.132,17.364c3.469,4.375,6.845,8.194,10.117,11.47l22.686,18.677
		c14.1,11.582,26.463,24.353,37.091,38.337c10.015,14.2,15.228,32.768,15.635,55.704c0,32.546-14.306,61.382-42.92,86.503
		c-29.671,25.997-72.492,39.429-128.443,40.306c-46.842-0.44-81.816-10.471-104.913-30.092C12.659,463.267,1,441.355,1,415.849
		c0-12.433,3.793-26.276,11.373-41.539c7.362-15.266,20.685-28.679,39.972-40.226c21.661-12.43,44.414-20.713,68.246-24.854
		c23.607-3.495,43.216-5.451,58.816-5.891c-4.821-6.369-9.119-13.178-12.889-20.428c-4.404-7.028-6.6-15.485-6.6-25.371
		c0-5.929,0.835-10.875,2.512-14.826c1.468-4.172,2.83-8.014,4.089-11.524c-7.599,0.874-14.759,1.31-21.488,1.31
		c-35.597-0.437-62.731-11.682-81.399-33.747c-19.535-20.527-29.302-44.443-29.302-71.747c0-32.983,13.84-62.902,41.52-89.772
		c19.014-15.719,38.768-26.097,59.263-30.905C155.396,2.187,174.413,0,192.159,0h133.74l-41.305,24H243.36z M269.196,411.128
		c0-17.042-5.541-31.904-16.612-44.568c-11.711-12.022-30.018-26.768-54.936-44.247c-4.259-0.44-9.26-0.655-15.009-0.655
		c-3.408-0.437-12.141,0-26.193,1.314c-13.843,1.962-28.001,5.129-42.474,9.501c-3.414,1.31-8.203,3.273-14.376,5.9
		c-6.176,2.836-12.452,6.886-18.841,12.125c-6.176,5.457-11.389,12.234-15.652,20.318c-4.901,8.521-7.349,18.786-7.349,30.808
		c0,23.591,10.644,43.036,31.939,58.338c20.228,15.292,47.912,23.155,83.043,23.598c31.515-0.443,55.575-7.432,72.184-20.98
		C261.099,449.247,269.196,432.098,269.196,411.128z M175.952,214.21c17.604-0.652,32.273-7.002,44.013-19.043
		c5.659-8.534,9.295-17.29,10.914-26.264c0.967-8.971,1.455-16.522,1.455-22.653c0-26.485-6.742-53.192-20.228-80.117
		c-6.324-12.912-14.649-23.418-24.976-31.518c-10.541-7.657-22.657-11.707-36.355-12.151c-18.121,0.443-33.195,7.776-45.204,22.001
		c-10.13,14.887-14.98,31.525-14.54,49.906c0,24.295,7.073,49.582,21.234,75.846c6.851,12.26,15.697,22.657,26.533,31.191
		C149.633,209.948,162.018,214.21,175.952,214.21z"/>
	<path d="M480,224.25h-64v-64h-32v64h-64v32h64v64h32v-64h64V224.25z"/>
</g>
</svg>
