<?xml version="1.0" encoding="UTF-8" standalone="no"?>
<svg width="512px" height="512px" viewBox="0 0 512 512" version="1.1" xmlns="http://www.w3.org/2000/svg" xmlns:xlink="http://www.w3.org/1999/xlink" xmlns:sketch="http://www.bohemiancoding.com/sketch/ns">
    <title>Untitled</title>
    <description>Created with Sketch (http://www.bohemiancoding.com/sketch)</description>
    <defs></defs>
    <g id="Page-1" stroke="none" stroke-width="1" fill="none" fill-rule="evenodd" sketch:type="MSPage">
        <g id="instagram" sketch:type="MSLayerGroup" transform="translate(0.000000, -256.000000)" fill="#000000">
            <g id="Instagram" transform="translate(0.000000, 256.000000)" sketch:type="MSShapeGroup">
                <path d="M58.966,511.373 C26.404,511.373 0.002,484.962 0.002,452.377 L0.002,59.213 C0.002,26.647 26.404,0.249 58.966,0.249 L452.166,0.249 C484.732,0.249 511.13,26.647 511.13,59.213 L511.13,452.377 C511.13,484.962 484.732,511.373 452.166,511.373 L58.966,511.373 Z M452.166,216.472 L407.67,216.472 C410.912,229.057 412.827,242.206 412.827,255.802 C412.827,342.672 342.421,413.074 255.564,413.074 C168.712,413.074 98.301,342.672 98.301,255.802 C98.301,242.206 100.225,229.056 103.467,216.472 L58.965,216.472 L58.965,432.735 C58.965,443.577 67.77,452.378 78.644,452.378 L432.487,452.378 C443.36,452.378 452.166,443.577 452.166,432.735 L452.166,216.472 Z M452.166,78.869 C452.166,68.018 443.361,59.213 432.487,59.213 L373.523,59.213 C362.663,59.213 353.867,68.018 353.867,78.869 L353.867,137.856 C353.867,148.707 362.663,157.512 373.523,157.512 L432.487,157.512 C443.36,157.512 452.166,148.707 452.166,137.856 L452.166,78.869 Z M255.563,157.512 C201.273,157.512 157.269,201.511 157.269,255.802 C157.269,310.083 201.273,354.105 255.563,354.105 C309.853,354.105 353.866,310.083 353.866,255.802 C353.867,201.512 309.854,157.512 255.563,157.512 Z" id="Shape"></path>
            </g>
        </g>
    </g>
</svg>