<?xml version="1.0" encoding="utf-8"?>
<!-- Generator: Adobe Illustrator 17.1.0, SVG Export Plug-In . SVG Version: 6.00 Build 0)  -->
<!DOCTYPE svg PUBLIC "-//W3C//DTD SVG 1.1//EN" "http://www.w3.org/Graphics/SVG/1.1/DTD/svg11.dtd">
<svg version="1.1" xmlns="http://www.w3.org/2000/svg" xmlns:xlink="http://www.w3.org/1999/xlink" x="0px" y="0px"
	 viewBox="0 0 512 512" enable-background="new 0 0 512 512" xml:space="preserve">
<g id="LinkedIn">
	<path fill="#231F20" d="M474.072,0H37.767C16.938,0,0,16.775,0,37.138v438.166C0,495.695,16.938,512,37.767,512h436.305
		c20.87,0,37.928-16.305,37.928-36.696V37.138C512,16.775,494.942,0,474.072,0z M152,436H76V192h76V436z M113.798,158.794
		c-24.407,0-44.086-19.733-44.086-44.041c0-24.282,19.678-44.013,44.086-44.013c24.312,0,44.045,19.731,44.045,44.013
		C157.843,139.061,138.11,158.794,113.798,158.794z M436,436h-76V317.722c0-28.339-0.512-64.788-39.457-64.788
		c-39.544,0-45.543,30.86-45.543,62.729V436h-76V192h73v33h1.367c10.133-18,34.751-39.175,71.717-39.175
		c76.887,0,90.916,50.883,90.916,116.685V436z"/>
</g>
</svg>
