<?xml version="1.0" encoding="utf-8"?>
<!-- Generator: Adobe Illustrator 17.1.0, SVG Export Plug-In . SVG Version: 6.00 Build 0)  -->
<!DOCTYPE svg PUBLIC "-//W3C//DTD SVG 1.1//EN" "http://www.w3.org/Graphics/SVG/1.1/DTD/svg11.dtd">
<svg version="1.1" xmlns="http://www.w3.org/2000/svg" xmlns:xlink="http://www.w3.org/1999/xlink" x="0px" y="0px"
	 viewBox="0 0 512 512" enable-background="new 0 0 512 512" xml:space="preserve">
<g id="LinkedIn-alt">
	<rect x="32" y="172" fill="#231F20" width="96" height="308"/>
	<path fill="#231F20" d="M79.662,130.001C48.846,130.001,24,105.086,24,74.395c0-30.659,24.846-55.571,55.662-55.571
		c30.696,0,55.611,24.912,55.611,55.571C135.273,105.086,110.358,130.001,79.662,130.001z"/>
	<path fill="#231F20" d="M480,480h-96V330.663c0-35.781-0.486-81.801-49.659-81.801c-49.928,0-57.341,38.963-57.341,79.202V480h-97
		V172h94v42h1.133c12.794-23,43.64-49.666,90.313-49.666c97.077,0,114.553,64.041,114.553,147.122V480z"/>
</g>
</svg>
