<?xml version="1.0" encoding="utf-8"?>
<!-- Generator: Adobe Illustrator 17.1.0, SVG Export Plug-In . SVG Version: 6.00 Build 0)  -->
<!DOCTYPE svg PUBLIC "-//W3C//DTD SVG 1.1//EN" "http://www.w3.org/Graphics/SVG/1.1/DTD/svg11.dtd">
<svg version="1.1" xmlns="http://www.w3.org/2000/svg" xmlns:xlink="http://www.w3.org/1999/xlink" x="0px" y="0px"
	 viewBox="0 0 512 512" enable-background="new 0 0 512 512" xml:space="preserve">
<g id="pin">
	<path d="M256.008,0C156.466,0,75.776,80.69,75.776,180.233c0,7.613,0.613,15.054,1.539,22.401
		c15.4,140.783,167,303.041,167,303.041c2.7,3.014,5.289,4.897,7.801,6.248l0.125,0.063l5.056,1.6l5.039-1.6l0.141-0.063
		c2.496-1.351,5.102-3.296,7.802-6.248c0,0,149.435-162.541,164.44-303.355c0.909-7.268,1.505-14.63,1.505-22.119
		C436.224,80.69,355.535,0,256.008,0z M256.007,273.323c-51.315,0-93.09-41.773-93.09-93.09s41.774-93.091,93.09-93.091
		c51.329,0,93.076,41.775,93.076,93.091S307.336,273.323,256.007,273.323z"/>
</g>
</svg>
