<?xml version="1.0" encoding="utf-8"?>
<!-- Generator: Adobe Illustrator 17.1.0, SVG Export Plug-In . SVG Version: 6.00 Build 0)  -->
<!DOCTYPE svg PUBLIC "-//W3C//DTD SVG 1.1//EN" "http://www.w3.org/Graphics/SVG/1.1/DTD/svg11.dtd">
<svg version="1.1" xmlns="http://www.w3.org/2000/svg" xmlns:xlink="http://www.w3.org/1999/xlink" x="0px" y="0px"
	 viewBox="0 0 512 512" enable-background="new 0 0 512 512" xml:space="preserve">
<g id="pocket">
	<path d="M495.918,1H13.9C4.438,1-1,8.923-1,18.385v211.999c0,3.128,0.85,39.29,0.85,39.29
		C14.566,406.26,115.965,511.209,255.784,511.209c139.818,0,241.184-104.949,255.901-241.535c0,0,1.315-33.374,1.315-35.181V18.385
		C513,8.923,505.38,1,495.918,1z M434.621,200.812L266.214,369.217c-2.879,2.873-6.28,4.317-10.212,4.317
		c-3.938,0-7.345-1.443-10.218-4.317L77.378,200.812c-2.868-2.875-4.311-6.279-4.311-10.214c0-3.935,1.443-7.337,4.311-10.211
		l37.68-37.675c2.868-2.877,6.274-4.312,10.212-4.312c3.932,0,7.334,1.434,10.212,4.312l120.52,120.516l120.514-120.516
		c2.873-2.877,6.28-4.312,10.216-4.312c3.933,0,7.335,1.434,10.213,4.312l37.674,37.675c2.872,2.874,4.312,6.276,4.312,10.211
		C438.933,194.533,437.493,197.938,434.621,200.812z"/>
</g>
</svg>
