<?xml version="1.0" encoding="utf-8"?>
<!-- Generator: Adobe Illustrator 17.1.0, SVG Export Plug-In . SVG Version: 6.00 Build 0)  -->
<!DOCTYPE svg PUBLIC "-//W3C//DTD SVG 1.1//EN" "http://www.w3.org/Graphics/SVG/1.1/DTD/svg11.dtd">
<svg version="1.1" xmlns="http://www.w3.org/2000/svg" xmlns:xlink="http://www.w3.org/1999/xlink" x="0px" y="0px"
	 viewBox="0 0 512 512" enable-background="new 0 0 512 512" xml:space="preserve">
<g id="Skype">
	<path d="M486.576,288.834c1.431-10.357,2.239-20.904,2.239-31.606c0-128.57-104.835-232.83-234.09-232.83
		c-12.832,0-25.446,1.058-37.688,3.064c-21.977-14.34-48.124-22.647-76.263-22.647C63.626,4.815,1.16,67.342,1.16,144.491
		c0,28.06,8.245,54.161,22.493,76.045c-1.914,11.977-2.894,24.202-2.894,36.691c0,128.602,104.727,232.815,233.997,232.815
		c14.591,0,28.807-1.431,42.589-3.92c21.433,13.314,46.754,21.062,73.819,21.062c77.181,0,139.676-62.528,139.676-139.677
		C510.84,338.359,501.943,311.232,486.576,288.834z M276.656,428.792c-74.396,3.888-109.174-12.6-141.061-42.494
		c-35.619-33.411-21.325-71.52,7.7-73.448c28.993-1.929,46.381,32.85,61.858,42.526c15.461,9.643,74.239,31.636,105.318-3.89
		c33.813-38.636-22.493-58.638-63.772-64.706c-58.936-8.71-133.347-40.58-127.545-103.434c5.802-62.747,53.32-94.99,103.372-99.501
		c63.773-5.802,105.304,9.643,138.154,37.672c37.981,32.4,17.42,68.595-6.752,71.487c-24.141,2.909-51.172-53.257-104.338-54.081
		c-54.78-0.871-91.8,57.02-24.17,73.446c67.659,16.441,140.08,23.192,166.211,85.02
		C417.764,359.234,351.067,424.903,276.656,428.792z"/>
</g>
</svg>
