<?xml version="1.0" encoding="utf-8"?>
<!-- Generator: Adobe Illustrator 17.1.0, SVG Export Plug-In . SVG Version: 6.00 Build 0)  -->
<!DOCTYPE svg PUBLIC "-//W3C//DTD SVG 1.1//EN" "http://www.w3.org/Graphics/SVG/1.1/DTD/svg11.dtd">
<svg version="1.1" xmlns="http://www.w3.org/2000/svg" xmlns:xlink="http://www.w3.org/1999/xlink" x="0px" y="0px"
	 viewBox="0 0 512 512" enable-background="new 0 0 512 512" xml:space="preserve">
<g id="tcamp">
	<path d="M313.689,253.226c2.643,2.996,15.551,1.771,16.668,0.447c0.657-0.779,0.479-2.192,0.44-3.116
		c-0.079-1.809-0.296-3.604-0.325-5.414c-0.184-11.638-0.469-16.268-0.67-18.099c-0.259-2.354-0.595-4.701-1.002-7.03
		c-0.836-4.817-2.002-9.598-3.584-14.227c-1.846-5.401-4.528-10.744-7.211-15.773c-1.139-2.145-2.386-4.575-4.759-5.549
		c-1.579-0.648-3.296,0.332-4.749,0.887c-1.193,0.458-2.7,0.88-3.161,2.235c-0.527,1.543,0.476,3.108,1.164,4.449
		c0.033,0.058,0.061,0.115,0.09,0.174c0.803,1.615,1.41,3.327,1.989,5.032c1.425,4.204,2.322,8.566,3.04,12.939
		c0.49,2.982,0.855,5.982,1.153,8.988c0.571,5.779,0.877,11.587,1.015,17.392c0.064,2.762,0.093,5.524,0.071,8.285
		c-0.007,1.353-0.043,2.679-0.223,4.02C313.468,250.11,312.827,252.249,313.689,253.226z"/>
	<path d="M287.583,218.744c-0.225-2.964-0.588-5.913-0.999-8.854c-0.825-5.92-1.836-11.819-2.968-17.688
		c-0.663-3.465-1.524-5.516-2.25-8.964c-0.414-1.975-0.88-4.859-3.288-5.234c-2.228-0.343-3.475-0.18-5.53,0.354
		c-1.438,0.368-3.491,0.505-4.002,2.207c-0.253,0.85-0.223,1.752-0.129,2.643c0.047,0.501,0.116,0.998,0.163,1.482
		c0.132,1.399,0.233,2.798,0.385,4.196c0.338,3.154,0.765,6.295,1.183,9.439c0.46,3.457,0.911,6.863,1.221,9.903
		c0.412,4.02,0.668,8.055,0.833,12.092c0.317,7.402,0.278,14.822,0.108,22.227c-0.072,3.033-0.047,6.069-0.163,9.101
		c-0.055,1.377-0.3,2.718-0.393,4.097c-0.195,2.904-0.534,4.506,1.479,5.267c2.667,1.005,11.327,1.165,13.844,0.292
		c1.539-0.534,1.352-3.05,1.435-4.067c0.179-2.231,0.072-4.376,0.082-6.94C288.621,243.326,288.662,232.794,287.583,218.744z"/>
	<path d="M200.925,219.17c0.3-3.007,0.664-6.007,1.155-8.988c0.72-4.373,1.615-8.735,3.042-12.939
		c0.576-1.705,1.184-3.417,1.99-5.032c0.029-0.059,0.058-0.116,0.086-0.174c0.693-1.341,1.691-2.906,1.169-4.449
		c-0.462-1.355-1.968-1.777-3.166-2.235c-1.448-0.555-3.165-1.535-4.744-0.887c-2.371,0.974-3.62,3.404-4.762,5.549
		c-2.679,5.029-5.365,10.372-7.212,15.773c-1.582,4.629-2.747,9.409-3.583,14.227c-0.407,2.329-0.739,4.676-0.998,7.03
		c-0.206,1.831-0.49,6.461-0.674,18.099c-0.03,1.81-0.242,3.605-0.321,5.414c-0.044,0.924-0.218,2.337,0.44,3.116
		c1.117,1.323,14.024,2.549,16.663-0.447c0.866-0.977,0.225-3.115,0.058-4.358c-0.179-1.342-0.216-2.668-0.223-4.02
		c-0.022-2.762,0.003-5.523,0.069-8.285C200.053,230.757,200.355,224.949,200.925,219.17z"/>
	<path d="M225.189,257.234c0.08,1.018-0.108,3.533,1.436,4.067c2.513,0.873,11.176,0.713,13.843-0.292
		c2.013-0.761,1.673-2.362,1.48-5.267c-0.094-1.379-0.343-2.72-0.396-4.097c-0.116-3.031-0.088-6.067-0.16-9.101
		c-0.173-7.404-0.209-14.824,0.104-22.227c0.169-4.037,0.421-8.072,0.833-12.092c0.31-3.04,0.764-6.446,1.226-9.903
		c0.419-3.145,0.844-6.285,1.18-9.439c0.152-1.398,0.256-2.797,0.386-4.196c0.05-0.483,0.115-0.981,0.166-1.482
		c0.09-0.891,0.123-1.792-0.129-2.643c-0.512-1.702-2.567-1.839-4.003-2.207c-2.056-0.533-3.302-0.696-5.53-0.354
		c-2.407,0.375-2.877,3.26-3.288,5.234c-0.729,3.448-1.587,5.499-2.253,8.964c-1.13,5.868-2.138,11.768-2.968,17.688
		c-0.411,2.941-0.771,5.891-0.999,8.854c-1.078,14.05-1.038,24.582-1.013,31.55C225.117,252.858,225.01,255.003,225.189,257.234z"
		/>
	<path d="M398.288,317.06h-11.648v-65.67c0-70.845-30.469-112.598-90.637-124.627c0-5.146,0-21.87,0-29.979
		c0-3.691-1.266-6.806-6.324-6.833c-2.636-0.013-6.476,0.175-9.593-0.088c-2.809-0.238-4.5,0.443-4.5-7.269
		c0-6.563-0.581-18.841-0.578-18.33c0.083-4.636,5.917-9.666,6.725-14.141c0.267-1.434,0.281-2.897,0.011-4.329
		c-0.48-2.573-1.732-4.919-3.738-7.024c-4.233-4.448-7.012-5.506-10.15-11.092c-2.848-5.059-2.484-12.635-2.484-18.515
		c0-8.926,1.06-8.979-9.283-8.979c-0.031,0-0.056,0-0.087,0s-0.056,0-0.085,0c-10.343,0-9.284,0.053-9.284,8.979
		c0,5.88,0.363,13.456-2.484,18.515c-3.137,5.586-5.915,6.644-10.149,11.092c-2.008,2.105-3.259,4.451-3.738,7.024
		c-0.27,1.432-0.256,2.896,0.011,4.329c0.806,4.475,6.64,9.505,6.723,14.141c0.003-0.511-0.578,11.767-0.578,18.33
		c0,7.712-1.689,7.03-4.498,7.269c-3.12,0.263-6.96,0.075-9.595,0.088c-5.057,0.027-6.323,3.142-6.323,6.833
		c0,8.109,0,24.833,0,29.979c-60.172,12.029-90.638,53.782-90.638,124.627c0,9.176,7.438,7.384,16.613,7.384
		s16.613,1.792,16.613-7.384c0-66.638,29.132-95.072,97.412-95.072c68.282,0,97.413,28.434,97.413,95.072v65.67h-239.7
		c-8.156,0-14.768,6.613-14.768,14.768v165.219c0,8.155,6.612,14.768,14.768,14.768h284.575c8.156,0,14.767-6.612,14.767-14.768
		V331.828C413.055,323.674,406.444,317.06,398.288,317.06z M283.375,467.44c-1.794,0-52.984,0-54.778,0
		c-2.308,0-3.058-1.053-2.539-3.302c0.888-3.852,11.732-49.87,11.732-49.87c-6.909-5.407-11.364-13.808-11.364-23.269
		c0-16.324,13.238-29.564,29.567-29.564c16.328,0,29.566,13.239,29.566,29.564c0,9.461-4.457,17.861-11.363,23.269
		c0,0,11.198,47.598,11.724,49.87C286.552,466.849,285.455,467.44,283.375,467.44z"/>
</g>
</svg>
