<?xml version="1.0" encoding="utf-8"?>
<!-- Generator: Adobe Illustrator 17.1.0, SVG Export Plug-In . SVG Version: 6.00 Build 0)  -->
<!DOCTYPE svg PUBLIC "-//W3C//DTD SVG 1.1//EN" "http://www.w3.org/Graphics/SVG/1.1/DTD/svg11.dtd">
<svg version="1.1" xmlns="http://www.w3.org/2000/svg" xmlns:xlink="http://www.w3.org/1999/xlink" x="0px" y="0px"
	 viewBox="0 0 512 512" enable-background="new 0 0 512 512" xml:space="preserve">
<g id="tumblr">
	<path d="M287.813,224.173H415.09V128.69H287.813V1.381h-82.118c-3.249,26.264-9.231,47.928-17.856,64.898
		c-8.626,17.032-20.079,31.579-34.376,43.731c-14.188,12.121-36.567,21.446-56.553,27.941v86.221h68.333v164.482h-0.031
		c0,23.249,2.455,41.06,7.32,53.306c4.91,12.276,13.629,23.84,26.294,34.718c12.604,10.815,27.88,19.27,45.767,25.176
		c17.919,5.843,31.595,8.765,54.906,8.765c20.514,0,39.537-2.051,57.222-6.154c17.623-4.164,36.581-10.101,58.34-20.358v-76.584
		c-25.488,16.784-40.749,20.172-66.517,20.172c-14.481,0-27.349-3.326-38.665-10.102c-8.516-5.004-16.224-13.707-19.362-21.975
		c-3.14-8.36-2.767-25.394-2.767-54.952L287.813,224.173z"/>
</g>
</svg>
