<?xml version="1.0" encoding="utf-8"?>
<!-- Generator: Adobe Illustrator 17.1.0, SVG Export Plug-In . SVG Version: 6.00 Build 0)  -->
<!DOCTYPE svg PUBLIC "-//W3C//DTD SVG 1.1//EN" "http://www.w3.org/Graphics/SVG/1.1/DTD/svg11.dtd">
<svg version="1.1" xmlns="http://www.w3.org/2000/svg" xmlns:xlink="http://www.w3.org/1999/xlink" x="0px" y="0px"
	 viewBox="0 0 512 512" enable-background="new 0 0 512 512" xml:space="preserve">
<g id="Twitter">
	<g>
		<path d="M512,95.687c-18.838,8.448-39.081,14.158-60.331,16.725c21.689-13.145,38.344-33.961,46.187-58.764
			C477.56,65.82,455.079,74.66,431.152,79.424c-19.161-20.644-46.461-33.543-76.673-33.543
			c-58.014,0-105.046,47.557-105.046,106.213c0,8.326,0.929,16.431,2.719,24.206c-87.3-4.429-164.701-46.715-216.51-110.977
			c-9.042,15.688-14.221,33.933-14.221,53.399c0,36.849,18.545,69.36,46.73,88.408c-17.219-0.551-33.416-5.33-47.579-13.285
			c-0.007,0.444-0.009,0.888-0.009,1.335c0,51.463,36.208,94.393,84.263,104.15c-8.815,2.426-18.095,3.725-27.675,3.725
			c-6.769,0-13.349-0.666-19.763-1.905c13.367,42.198,52.16,72.907,98.126,73.765c-35.951,28.487-81.243,45.467-130.457,45.467
			c-8.479,0-16.84-0.503-25.058-1.483c46.487,30.136,101.701,47.72,161.021,47.72c193.213,0,298.868-161.848,298.868-302.207
			c0-4.605-0.102-9.186-0.304-13.74C480.108,135.695,497.918,116.987,512,95.687z"/>
	</g>
</g>
</svg>
