<?xml version="1.0" encoding="utf-8"?>
<!-- Generator: Adobe Illustrator 17.0.2, SVG Export Plug-In . SVG Version: 6.00 Build 0)  -->
<!DOCTYPE svg PUBLIC "-//W3C//DTD SVG 1.1//EN" "http://www.w3.org/Graphics/SVG/1.1/DTD/svg11.dtd">
<svg version="1.1" id="Layer_1" xmlns="http://www.w3.org/2000/svg" xmlns:xlink="http://www.w3.org/1999/xlink" x="0px" y="0px"
	 width="1024px" height="1024px" viewBox="0 0 1024 1024" enable-background="new 0 0 1024 1024" xml:space="preserve">
<path d="M1024,190.874c-37.675,16.895-78.163,28.317-120.663,33.45c43.377-26.29,76.689-67.921,92.374-117.527
	c-40.59,24.344-85.552,42.024-133.407,51.551c-38.322-41.288-92.922-67.086-153.345-67.086
	c-116.029,0-210.092,95.114-210.092,212.426c0,16.651,1.858,32.862,5.439,48.411c-174.601-8.858-329.402-93.431-433.019-221.954
	c-18.084,31.375-28.443,67.866-28.443,106.798c0,73.698,37.09,138.72,93.46,176.816c-34.438-1.102-66.831-10.659-95.157-26.571
	c-0.015,0.888-0.018,1.775-0.018,2.67c0,102.927,72.417,188.787,168.525,208.3c-17.63,4.853-36.19,7.449-55.349,7.449
	c-13.538,0-26.698-1.332-39.526-3.81c26.735,84.395,104.32,145.814,196.251,147.531c-71.901,56.973-162.486,90.934-260.913,90.934
	c-16.958,0-33.681-1.006-50.115-2.966c92.973,60.273,203.402,95.439,322.042,95.439c386.426,0,597.736-323.696,597.736-604.415
	c0-9.209-0.205-18.371-0.607-27.481C960.216,270.89,995.835,233.475,1024,190.874z"/>
</svg>
