<?xml version="1.0" encoding="utf-8"?>
<!-- Generator: Adobe Illustrator 17.1.0, SVG Export Plug-In . SVG Version: 6.00 Build 0)  -->
<!DOCTYPE svg PUBLIC "-//W3C//DTD SVG 1.1//EN" "http://www.w3.org/Graphics/SVG/1.1/DTD/svg11.dtd">
<svg version="1.1" id="youtube" xmlns="http://www.w3.org/2000/svg" xmlns:xlink="http://www.w3.org/1999/xlink" x="0px" y="0px"
	 viewBox="0 0 512 512" enable-background="new 0 0 512 512" xml:space="preserve">
<g id="Lozenge">
	<g>
		<path fill="#231F20" d="M508.471,171.937c0,0-5.003-34.488-20.354-49.675c-19.469-19.933-41.293-20.032-51.301-21.199
			C365.169,96,257.695,96,257.695,96h-0.223c0,0-107.472,0-179.121,5.063c-10.009,1.167-31.824,1.266-51.301,21.199
			C11.7,137.449,6.705,171.937,6.705,171.937s-5.12,40.5-5.12,81v37.969c0,40.499,5.12,80.999,5.12,80.999
			s4.995,34.488,20.346,49.676c19.477,19.933,45.06,19.303,56.455,21.392C124.467,446.812,257.584,448,257.584,448
			s107.585-0.158,179.232-5.221c10.008-1.167,31.831-1.266,51.301-21.199c15.351-15.187,20.354-49.676,20.354-49.676
			s5.113-40.5,5.113-80.999v-37.969C513.584,212.437,508.471,171.937,508.471,171.937z M204.726,343.707l-0.023-143.413
			l138.345,71.956L204.726,343.707z"/>
	</g>
</g>
</svg>
