<?xml version="1.0" standalone="no"?>
<!DOCTYPE svg PUBLIC "-//W3C//DTD SVG 1.1//EN" "http://www.w3.org/Graphics/SVG/1.1/DTD/svg11.dtd" >
<!--
2014-6-12: Created.
-->
<svg xmlns="http://www.w3.org/2000/svg">
<metadata>
Created by FontForge 20120731 at Thu Jun 12 13:39:06 2014
 By oliverex
Created by oliverex with FontForge 2.0 (http://fontforge.sf.net)
</metadata>
<defs>
<font id="sf-icons" horiz-adv-x="512" >
  <font-face 
    font-family="sf-icons"
    font-weight="500"
    font-stretch="normal"
    units-per-em="512"
    panose-1="2 0 6 9 0 0 0 0 0 0"
    ascent="448"
    descent="-64"
    bbox="-1 -65.5859 513.584 448"
    underline-thickness="25.6"
    underline-position="-51.2"
    unicode-range="U+F100-F116"
  />
    <missing-glyph />
    <glyph glyph-name="uniF108" unicode="&#xf108;" 
d="M243.36 424c4.19727 -3 8.92285 -6.66309 14.1738 -11.6826c5.03613 -5.24512 9.97559 -11.7959 14.8037 -19.4443c4.61914 -7.20703 8.71094 -15.7793 12.2852 -25.6084c2.93555 -9.83203 4.40723 -21.3242 4.40723 -34.4355
c-0.395508 -24.0312 -5.6748 -43.2646 -15.8379 -57.6797c-4.98535 -6.99512 -10.2656 -13.4424 -15.8447 -19.3428c-6.17285 -5.89648 -12.748 -11.9131 -19.7236 -18.0244c-3.9834 -4.15332 -7.66992 -8.84766 -11.0547 -14.0889
c-3.9834 -5.46289 -5.97754 -11.7988 -5.97754 -19.0098c0 -6.99121 2.04297 -12.7764 6.13184 -17.3633c3.46973 -4.375 6.8457 -8.19434 10.1172 -11.4707l22.6865 -18.6768c14.0996 -11.582 26.4629 -24.3525 37.0908 -38.3369
c10.0146 -14.2002 15.2275 -32.7676 15.6348 -55.7041c0 -32.5459 -14.3057 -61.3818 -42.9199 -86.5029c-29.6709 -25.9971 -72.4922 -39.4287 -128.443 -40.3057c-46.8418 0.439453 -81.8154 10.4707 -104.913 30.0918
c-23.3174 18.3184 -34.9766 40.2295 -34.9766 65.7363c0 12.4326 3.79297 26.2754 11.373 41.5391c7.3623 15.2656 20.6846 28.6787 39.9717 40.2256c21.6611 12.4297 44.4141 20.7129 68.2461 24.8535c23.6074 3.49512 43.2158 5.45117 58.8164 5.8916
c-4.82129 6.36914 -9.11914 13.1777 -12.8896 20.4277c-4.40332 7.02832 -6.59961 15.4854 -6.59961 25.3711c0 5.92871 0.834961 10.875 2.51172 14.8262c1.46875 4.17188 2.83008 8.01367 4.08887 11.5234c-7.59863 -0.874023 -14.7588 -1.30957 -21.4873 -1.30957
c-35.5977 0.436523 -62.7314 11.6816 -81.3994 33.7471c-19.5352 20.5273 -29.3018 44.4434 -29.3018 71.7471c0 32.9824 13.8398 62.9023 41.5195 89.7715c19.0146 15.7197 38.7686 26.0977 59.2637 30.9053c20.2832 4.14258 39.2998 6.3291 57.0459 6.3291h133.74
l-41.3057 -24h-41.2334zM269.196 36.8721c0 17.042 -5.54102 31.9043 -16.6123 44.5684c-11.7109 12.0215 -30.0176 26.7676 -54.9355 44.2461c-4.25977 0.44043 -9.26074 0.655273 -15.0098 0.655273c-3.40723 0.4375 -12.1406 0 -26.1924 -1.31348
c-13.8438 -1.96191 -28.001 -5.12891 -42.4746 -9.50098c-3.41406 -1.31055 -8.20312 -3.27344 -14.376 -5.90039c-6.17578 -2.83594 -12.4521 -6.88574 -18.8408 -12.125c-6.17578 -5.45703 -11.3887 -12.2344 -15.6523 -20.3184
c-4.90039 -8.52051 -7.34863 -18.7852 -7.34863 -30.8076c0 -23.5908 10.6445 -43.0361 31.9395 -58.3379c20.2275 -15.292 47.9121 -23.1553 83.043 -23.5977c31.5146 0.442383 55.5742 7.43164 72.1836 20.9795c16.1787 13.333 24.2764 30.4824 24.2764 51.4521z
M175.952 233.79c17.6035 0.652344 32.2725 7.00195 44.0127 19.043c5.65918 8.53418 9.29492 17.29 10.9141 26.2637c0.966797 8.97168 1.45508 16.5225 1.45508 22.6533c0 26.4854 -6.74219 53.1924 -20.2275 80.1172c-6.32422 12.9121 -14.6494 23.418 -24.9766 31.5176
c-10.541 7.65723 -22.6572 11.707 -36.3545 12.1514c-18.1211 -0.443359 -33.1953 -7.77637 -45.2041 -22.001c-10.1299 -14.8867 -14.9805 -31.5254 -14.54 -49.9062c0 -24.2949 7.07227 -49.582 21.2334 -75.8457c6.85156 -12.2598 15.6973 -22.6572 26.5332 -31.1914
c10.835 -8.54004 23.2197 -12.8018 37.1543 -12.8018zM480 223.75v-32h-64v-64h-32v64h-64v32h64v64h32v-64h64z" />
    <glyph glyph-name="uniF113" unicode="&#xf113;" 
d="M256.008 448c99.5273 0 180.216 -80.6904 180.216 -180.201c0 -7.48926 -0.595703 -14.8506 -1.50488 -22.1191c-15.0049 -140.813 -164.439 -303.354 -164.439 -303.354c-2.7002 -2.95215 -5.30664 -4.89746 -7.80273 -6.24805l-0.140625 -0.0634766l-5.03906 -1.59961
l-5.05566 1.59961l-0.125 0.0634766c-2.5127 1.35059 -5.10156 3.2334 -7.80078 6.24805c0 0 -151.601 162.258 -167 303.041c-0.926758 7.34668 -1.53906 14.7881 -1.53906 22.4004c0 99.543 80.6895 180.233 180.231 180.233zM256.007 174.677
c51.3291 0 93.0762 41.7744 93.0762 93.0898c0 51.3164 -41.7471 93.0918 -93.0762 93.0918c-51.3154 0 -93.0898 -41.7744 -93.0898 -93.0918c0 -51.3164 41.7754 -93.0898 93.0898 -93.0898z" />
    <glyph glyph-name="uniF111" unicode="&#xf111;" 
d="M512 352.313c-14.082 -21.3008 -31.8916 -40.0088 -52.416 -54.9854c0.202148 -4.55371 0.303711 -9.13477 0.303711 -13.7402c0 -140.359 -105.654 -302.207 -298.868 -302.207c-59.3193 0 -114.533 17.584 -161.021 47.7197
c8.21777 -0.979492 16.5791 -1.48242 25.0576 -1.48242c49.2148 0 94.5068 16.9795 130.457 45.4668c-45.9658 0.858398 -84.7588 31.5674 -98.126 73.7646c6.41406 -1.23828 12.9941 -1.9043 19.7637 -1.9043c9.58008 0 18.8594 1.29883 27.6748 3.72461
c-48.0547 9.75684 -84.2627 52.6875 -84.2627 104.15c0 0.446289 0.00195312 0.890625 0.00878906 1.33496c14.1631 -7.95508 30.3594 -12.7344 47.5791 -13.2852c-28.1855 19.0479 -46.7305 51.5586 -46.7305 88.4082c0 19.4658 5.17871 37.7109 14.2207 53.3984
c51.8096 -64.2617 129.21 -106.548 216.511 -110.977c-1.79004 7.77441 -2.71973 15.8799 -2.71973 24.2061c0 58.6553 47.0322 106.213 105.046 106.213c30.2129 0 57.5127 -12.8994 76.6738 -33.543c23.9268 4.76367 46.4072 13.6035 66.7041 25.7754
c-7.84375 -24.8027 -24.498 -45.6182 -46.1875 -58.7637c21.25 2.56738 41.4932 8.27734 60.3311 16.7256z" />
    <glyph glyph-name="uniF10A" unicode="&#xf10a;" 
d="M474.072 448c20.8701 0 37.9277 -16.7754 37.9277 -37.1377v-438.166c0 -20.3916 -17.0576 -36.6963 -37.9277 -36.6963h-436.306c-20.8281 0 -37.7666 16.3047 -37.7666 36.6963v438.166c0 20.3623 16.9385 37.1377 37.7666 37.1377h436.306zM152 12v244h-76v-244h76z
M113.798 289.206c24.3125 0 44.0449 19.7334 44.0449 44.041c0 24.2822 -19.7324 44.0127 -44.0449 44.0127c-24.4082 0 -44.0859 -19.7305 -44.0859 -44.0127c0 -24.3076 19.6787 -44.041 44.0859 -44.041zM436 12v133.49c0 65.8018 -14.0293 116.685 -90.916 116.685
c-36.9658 0 -61.584 -21.1748 -71.7168 -39.1748h-1.36719v33h-73v-244h76v120.337c0 31.8691 5.99902 62.7295 45.543 62.7295c38.9453 0 39.457 -36.4492 39.457 -64.7881v-118.278h76z" />
    <glyph glyph-name="uniF110" unicode="&#xf110;" 
d="M287.813 223.827l-0.0634766 -116.493c0 -29.5576 -0.373047 -46.5918 2.7666 -54.9521c3.13867 -8.26758 10.8467 -16.9707 19.3623 -21.9746c11.3164 -6.77637 24.1846 -10.1025 38.665 -10.1025c25.7676 0 41.0293 3.38867 66.5166 20.1719v-76.584
c-21.7588 -10.2568 -40.7168 -16.1934 -58.3398 -20.3574c-17.6846 -4.10352 -36.708 -6.1543 -57.2217 -6.1543c-23.3105 0 -36.9873 2.92188 -54.9062 8.76562c-17.8867 5.90527 -33.1631 14.3604 -45.7666 25.1758c-12.665 10.8779 -21.3838 22.4414 -26.2939 34.7178
c-4.86523 12.2461 -7.32031 30.0566 -7.32031 53.3057h0.03125v164.482h-68.333v86.2207c19.9863 6.49512 42.3652 15.8203 56.5527 27.9414c14.2969 12.1514 25.75 26.6992 34.376 43.7305c8.625 16.9707 14.6074 38.6348 17.8564 64.8984h82.1182v-127.31h127.276
v-95.4824h-127.276z" />
    <glyph glyph-name="uniF10F" unicode="&#xf10f;" 
d="M486.576 159.166c15.3672 -22.3984 24.2637 -49.5254 24.2637 -78.6729c0 -77.1494 -62.4951 -139.677 -139.676 -139.677c-27.0654 0 -52.3857 7.74805 -73.8193 21.0615c-13.7812 -2.48926 -27.998 -3.91992 -42.5889 -3.91992
c-129.27 0 -233.997 104.213 -233.997 232.815c0 12.4883 0.980469 24.7139 2.89453 36.6904c-14.248 21.8838 -22.4932 47.9854 -22.4932 76.0449c0 77.1494 62.4658 139.676 139.614 139.676c28.1387 0 54.2852 -8.30664 76.2627 -22.6465
c12.2422 2.00586 24.8555 3.06348 37.6875 3.06348c129.256 0 234.091 -104.26 234.091 -232.829c0 -10.7021 -0.808594 -21.249 -2.23926 -31.6064zM276.656 19.208c74.4111 3.88867 141.107 69.5576 114.975 131.403c-26.1309 61.8281 -98.5518 68.5791 -166.211 85.0195
c-67.6299 16.4258 -30.6104 74.3174 24.1699 73.4463c53.166 -0.824219 80.1973 -56.9902 104.338 -54.0811c24.1719 2.8916 44.7334 39.0869 6.75195 71.4873c-32.8496 28.0283 -74.3809 43.4736 -138.153 37.6719c-50.0527 -4.51172 -97.5703 -36.7539 -103.372 -99.501
c-5.80273 -62.8545 68.6084 -94.7246 127.545 -103.435c41.2783 -6.06738 97.585 -26.0693 63.7715 -64.7061c-31.0791 -35.5254 -89.8564 -13.5322 -105.317 -3.88965c-15.4775 9.67578 -32.8652 44.4551 -61.8584 42.5264
c-29.0254 -1.92871 -43.3193 -40.0371 -7.7002 -73.4482c31.8877 -29.8945 66.665 -46.3818 141.062 -42.4941z" />
    <glyph glyph-name="uniF100" unicode="&#xf100;" 
d="M448 384v0h64v-448h-182.546h-146.123h-183.331v448h64v64h96v-64h192v64h96v-64zM384 416v0v-64h32v64h-32zM96 416v0v-64h32v64h-32zM480 -32v0v256h-448v-256h448zM480 320.25v0v31.75h-32v-31.75l-96 0.25v31.5h-192v-32h-96v32.5l-32 -0.25v-32v-64.25h448v64.25z
" />
    <glyph glyph-name="uniF116" unicode="&#xf116;" 
d="M313.689 194.774c-0.862305 0.976562 -0.22168 3.11523 -0.0546875 4.35938c0.180664 1.34082 0.21582 2.66699 0.223633 4.02051c0.0214844 2.76074 -0.0078125 5.52246 -0.0712891 8.28516c-0.137695 5.80469 -0.444336 11.6123 -1.01465 17.3916
c-0.298828 3.00586 -0.663086 6.00586 -1.15332 8.98828c-0.717773 4.37305 -1.61523 8.73438 -3.04004 12.9385c-0.579102 1.70508 -1.18652 3.41699 -1.98926 5.03223c-0.0292969 0.0585938 -0.0566406 0.116211 -0.0898438 0.173828
c-0.688477 1.34082 -1.69141 2.90625 -1.16406 4.44922c0.460938 1.35449 1.96777 1.77734 3.16113 2.23535c1.45312 0.554688 3.16992 1.53418 4.74902 0.886719c2.37305 -0.974609 3.62012 -3.4043 4.75879 -5.54883c2.68359 -5.0293 5.36523 -10.3721 7.21094 -15.7734
c1.58203 -4.62891 2.74805 -9.41016 3.58398 -14.2266c0.407227 -2.3291 0.743164 -4.67676 1.00195 -7.03027c0.201172 -1.83105 0.486328 -6.46094 0.669922 -18.0986c0.0292969 -1.81055 0.246094 -3.60547 0.325195 -5.41406
c0.0390625 -0.924805 0.216797 -2.33691 -0.439453 -3.11621c-1.11719 -1.32422 -14.0254 -2.54883 -16.668 0.447266zM287.583 229.256c1.0791 -14.0498 1.03809 -24.582 1.01074 -31.5527c-0.00976562 -2.56445 0.0976562 -4.70898 -0.0820312 -6.94043
c-0.0830078 -1.0166 0.104492 -3.53223 -1.43457 -4.06641c-2.51758 -0.873047 -11.1768 -0.712891 -13.8438 0.291992c-2.01367 0.760742 -1.6748 2.3623 -1.47949 5.2666c0.0927734 1.37891 0.337891 2.71973 0.393555 4.09668
c0.115234 3.03223 0.0908203 6.06836 0.162109 9.10156c0.170898 7.40527 0.208984 14.8252 -0.107422 22.2266c-0.165039 4.03711 -0.420898 8.07227 -0.833008 12.0928c-0.310547 3.03906 -0.760742 6.44531 -1.2207 9.90234
c-0.417969 3.14453 -0.845703 6.28516 -1.18359 9.43945c-0.151367 1.39746 -0.25293 2.79688 -0.384766 4.19531c-0.046875 0.484375 -0.116211 0.981445 -0.163086 1.48242c-0.09375 0.890625 -0.124023 1.79297 0.128906 2.64258
c0.510742 1.70215 2.56445 1.83984 4.00195 2.20703c2.05469 0.53418 3.30176 0.697266 5.53027 0.354492c2.4082 -0.375 2.87402 -3.25879 3.28809 -5.23438c0.725586 -3.44727 1.58691 -5.49902 2.25 -8.96387c1.13184 -5.86914 2.14258 -11.7676 2.96777 -17.6875
c0.411133 -2.94141 0.774414 -5.89062 0.999023 -8.85449zM200.925 228.83c-0.569336 -5.7793 -0.87207 -11.5869 -1.01074 -17.3945c-0.0664062 -2.76172 -0.0908203 -5.52246 -0.0693359 -8.28418c0.00683594 -1.35254 0.0439453 -2.67871 0.223633 -4.02051
c0.166992 -1.24316 0.807617 -3.38086 -0.0585938 -4.35742c-2.63867 -2.99609 -15.5459 -1.77051 -16.6631 -0.447266c-0.657227 0.779297 -0.483398 2.19141 -0.439453 3.11621c0.0791016 1.80859 0.291016 3.60352 0.320312 5.41406
c0.18457 11.6377 0.46875 16.2676 0.674805 18.0986c0.258789 2.35352 0.59082 4.70117 0.998047 7.03027c0.835938 4.81738 2.00098 9.59766 3.58301 14.2266c1.84668 5.40137 4.53223 10.7441 7.21191 15.7734c1.1416 2.14453 2.39062 4.57422 4.76172 5.54883
c1.5791 0.647461 3.2959 -0.332031 4.74414 -0.886719c1.19824 -0.458008 2.7041 -0.880859 3.16602 -2.23535c0.521484 -1.54297 -0.476562 -3.1084 -1.16895 -4.44922c-0.0283203 -0.0576172 -0.0576172 -0.115234 -0.0859375 -0.173828
c-0.806641 -1.61523 -1.41406 -3.32715 -1.99023 -5.03223c-1.42676 -4.2041 -2.32227 -8.56543 -3.04199 -12.9385c-0.491211 -2.98145 -0.855469 -5.98145 -1.15527 -8.98828zM225.189 190.766c-0.179688 2.23145 -0.0722656 4.37598 -0.0859375 6.94336
c-0.0244141 6.96777 -0.0644531 17.5 1.01367 31.5498c0.227539 2.96289 0.587891 5.91309 0.999023 8.85449c0.830078 5.91992 1.83789 11.8193 2.96777 17.6875c0.666016 3.46484 1.52441 5.5166 2.25293 8.96387c0.411133 1.97461 0.880859 4.85938 3.28809 5.23438
c2.22754 0.341797 3.47363 0.178711 5.53027 -0.354492c1.43555 -0.367188 3.49121 -0.504883 4.00293 -2.20605c0.251953 -0.851562 0.21875 -1.75293 0.128906 -2.64355c-0.0507812 -0.500977 -0.116211 -0.999023 -0.166016 -1.48145
c-0.129883 -1.39941 -0.234375 -2.79883 -0.385742 -4.19629c-0.335938 -3.1543 -0.761719 -6.29395 -1.18066 -9.43945c-0.461914 -3.45703 -0.916016 -6.8623 -1.22559 -9.90234c-0.412109 -4.02051 -0.664062 -8.05566 -0.833008 -12.0928
c-0.313477 -7.40234 -0.277344 -14.8223 -0.104492 -22.2266c0.0722656 -3.03418 0.0439453 -6.07031 0.160156 -9.10059c0.0537109 -1.37793 0.301758 -2.71875 0.396484 -4.09766c0.192383 -2.90527 0.533203 -4.50586 -1.48047 -5.2666
c-2.66699 -1.00488 -11.3301 -1.16504 -13.8428 -0.291992c-1.54395 0.53418 -1.35645 3.04883 -1.43555 4.06641zM398.288 130.94c8.15625 0 14.7666 -6.61426 14.7686 -14.7686v-165.219c0 -8.15625 -6.61035 -14.7686 -14.7666 -14.7686h-284.575
c-8.15625 0 -14.7676 6.61328 -14.7676 14.7686v165.219c0 8.15527 6.61133 14.7686 14.7676 14.7686h239.7v65.6699c0 66.6377 -29.1309 95.0713 -97.4131 95.0713c-68.2803 0 -97.4121 -28.4336 -97.4121 -95.0713c0 -9.17676 -7.4375 -7.38477 -16.6133 -7.38477
c-9.1748 0 -16.6123 -1.79199 -16.6123 7.38477c0 70.8447 30.4658 112.598 90.6377 124.627v29.9785c0 3.69141 1.26562 6.80664 6.32324 6.83301c2.63477 0.0126953 6.47461 -0.174805 9.59473 0.0878906c2.80859 0.239258 4.49805 -0.442383 4.49805 7.26953
c0 6.5625 0.581055 18.8408 0.578125 18.3301c-0.0830078 4.63574 -5.91699 9.66602 -6.72266 14.1406c-0.267578 1.43262 -0.28125 2.89746 -0.0117188 4.3291c0.479492 2.57324 1.73047 4.91895 3.73828 7.02441c4.23438 4.44727 7.01172 5.50586 10.1494 11.0918
c2.84668 5.05859 2.4834 12.6348 2.4834 18.5146c0 8.92578 -1.05859 8.97949 9.28418 8.97949h0.0849609h0.0869141c10.3428 0 9.2832 -0.0537109 9.2832 -8.97949c0 -5.87988 -0.364258 -13.4561 2.48438 -18.5146c3.1377 -5.58594 5.91699 -6.64453 10.1494 -11.0918
c2.00586 -2.10547 3.25781 -4.45117 3.73828 -7.02441c0.269531 -1.43164 0.255859 -2.89551 -0.0107422 -4.3291c-0.808594 -4.47461 -6.64258 -9.50488 -6.72559 -14.1406c-0.00292969 0.510742 0.578125 -11.7676 0.578125 -18.3301
c0 -7.71191 1.69141 -7.03125 4.5 -7.26953c3.11719 -0.262695 6.95703 -0.0751953 9.59277 -0.0878906c5.05859 -0.0263672 6.32422 -3.1416 6.32422 -6.83301v-29.9785c60.168 -12.0293 90.6367 -53.7822 90.6367 -124.627v-65.6699h11.6484zM283.375 -19.4404
c2.08008 0 3.17676 0.591797 2.54492 3.30273c-0.526367 2.27148 -11.7236 49.8701 -11.7236 49.8701c6.90527 5.40723 11.3623 13.8076 11.3623 23.2686c0 16.3252 -13.2373 29.5645 -29.5654 29.5645c-16.3291 0 -29.5674 -13.2402 -29.5674 -29.5645
c0 -9.46094 4.45508 -17.8623 11.3643 -23.2686c0 0 -10.8438 -46.0186 -11.7324 -49.8701c-0.518555 -2.24902 0.231445 -3.30273 2.53906 -3.30273h54.7783z" />
    <glyph glyph-name="uniF109" unicode="&#xf109;" 
d="M58.9658 -63.373c-32.5615 0 -58.9639 26.4111 -58.9639 58.9961v393.164c0 32.5654 26.4023 58.9639 58.9639 58.9639h393.2c32.5664 0 58.9639 -26.3984 58.9639 -58.9639v-393.164c0 -32.585 -26.3975 -58.9961 -58.9639 -58.9961h-393.2zM452.166 231.528h-44.4961
c3.24219 -12.585 5.15723 -25.7344 5.15723 -39.3301c0 -86.8701 -70.4062 -157.272 -157.263 -157.272c-86.8525 0 -157.264 70.4023 -157.264 157.272c0 13.5957 1.92383 26.7461 5.16602 39.3301h-44.502v-216.264c0 -10.8418 8.80469 -19.6426 19.6787 -19.6426h353.844
c10.873 0 19.6787 8.80078 19.6787 19.6426v216.264zM452.166 369.131c0 10.8516 -8.80469 19.6562 -19.6787 19.6562h-58.9639c-10.8604 0 -19.6562 -8.80469 -19.6562 -19.6562v-58.9873c0 -10.8506 8.7959 -19.6553 19.6562 -19.6553h58.9639
c10.873 0 19.6787 8.80469 19.6787 19.6553v58.9873zM255.563 290.488c-54.29 0 -98.2949 -43.999 -98.2949 -98.29c0 -54.2812 44.0049 -98.3037 98.2949 -98.3037c54.2891 0 98.3027 44.0225 98.3027 98.3037c0.000976562 54.29 -44.0127 98.29 -98.3027 98.29z" />
    <glyph glyph-name="uniF105" unicode="&#xf105;" 
d="M268 -64h-94v228h-78v92h78v71.4395c0 77.8945 47.9258 120.311 117.416 120.311c33.2842 0 61.584 -2.47754 70.584 -3.58594v-81.4053l-48.5449 -0.0224609c-37.79 0 -45.4551 -17.958 -45.4551 -44.3105v-62.4258h90.7139l-11.7363 -92h-78.9775v-228z" />
    <glyph glyph-name="uniF106" unicode="&#xf106;" 
d="M474.072 448c20.8701 0 37.9277 -16.7754 37.9277 -37.1377v-438.166c0 -20.3916 -17.0576 -36.6963 -37.9277 -36.6963h-436.306c-20.8281 0 -37.7666 16.3047 -37.7666 36.6963v438.166c0 20.3623 16.9385 37.1377 37.7666 37.1377h436.306zM144 112
c44.1826 0 80 35.8174 80 80s-35.8174 80 -80 80s-80 -35.8174 -80 -80s35.8174 -80 80 -80zM368 112c44.1826 0 80 35.8174 80 80s-35.8174 80 -80 80s-80 -35.8174 -80 -80s35.8174 -80 80 -80z" />
    <glyph glyph-name="uniF102" unicode="&#xf102;" 
d="M256 63.25l64.1211 64.3721l191.879 -96.3721v-31.5h-512v31.5l191.885 96.3662zM0 320.25l148.999 -149.58l-148.999 -74.9199v224.5zM363.012 170.68l148.988 149.57v-224.5zM256 158.75l-256 225h511.75z" />
    <glyph glyph-name="uniF115" unicode="&#xf115;" 
d="M495.918 447c9.46191 0 17.082 -7.92285 17.082 -17.3848v-216.108c0 -1.80664 -1.31543 -35.1807 -1.31543 -35.1807c-14.7168 -136.586 -116.083 -241.535 -255.9 -241.535c-139.819 0 -241.218 104.949 -255.935 241.535c0 0 -0.849609 36.1621 -0.849609 39.29
v211.999c0 9.46191 5.43848 17.3848 14.9004 17.3848h482.018zM434.621 247.188c2.87207 2.87305 4.31152 6.27832 4.30957 10.2139c0 3.93457 -1.43945 7.33691 -4.31152 10.2109l-37.6738 37.6748c-2.87793 2.87793 -6.28027 4.31152 -10.2129 4.31152
c-3.93652 0 -7.34375 -1.43457 -10.2168 -4.31152l-120.514 -120.516l-120.52 120.516c-2.87891 2.87793 -6.28027 4.31152 -10.2129 4.31152c-3.9375 0 -7.34375 -1.43457 -10.2119 -4.31152l-37.6797 -37.6748c-2.86816 -2.87402 -4.31055 -6.27637 -4.31055 -10.2109
c0 -3.93555 1.44238 -7.33887 4.31055 -10.2139l168.406 -168.405c2.87305 -2.87402 6.28027 -4.31738 10.2178 -4.31738c3.93164 0 7.33301 1.44434 10.2119 4.31738z" />
    <glyph glyph-name="uniF10E" unicode="&#xf10e;" 
d="M379.461 384l132.539 -194.599l-132.539 -189.401h-93.0537l109.4 189.401l-109.4 194.599h93.0537zM211.013 384l132.569 -194.599l-132.569 -189.401h-92.9893l109.366 189.401l-109.366 194.599h92.9893zM128 192.011c0 -35.3486 -28.6689 -64.0225 -64.0137 -64.0225
c-35.3457 0 -63.9863 28.6748 -63.9863 64.0225c0 35.3447 28.6406 64 63.9863 64c35.3447 0 64.0137 -28.6543 64.0137 -64z" />
    <glyph glyph-name="uniF104" unicode="&#xf104;" 
d="M474.072 448c20.8701 0 37.9277 -16.7754 37.9277 -37.1377v-438.166c0 -20.3916 -17.0576 -36.6963 -37.9277 -36.6963h-138.072v179h80.0654l-0.0390625 77h-80.0264v49.7959c0 22.3672 6.11426 37.6094 38.1895 37.6094l41.8105 0.0185547v69.0938
c-6 0.941406 -32.376 3.04395 -60.626 3.04395c-58.9795 0 -99.374 -36 -99.374 -102.114v-57.4473h-64v-77h64v-179h-218.233c-20.8281 0 -37.7666 16.3047 -37.7666 36.6963v438.166c0 20.3623 16.9385 37.1377 37.7666 37.1377h436.306z" />
    <glyph glyph-name="uniF114" unicode="&#xf114;" 
d="M256.008 448c99.5273 0 180.216 -80.6904 180.216 -180.201c0 -7.48926 -0.595703 -14.8506 -1.50488 -22.1191c-15.0049 -140.813 -164.439 -303.354 -164.439 -303.354c-2.7002 -2.95215 -5.30664 -4.89746 -7.80273 -6.24805l-0.140625 -0.0634766l-5.03906 -1.59961
l-5.05566 1.59961l-0.125 0.0634766c-2.5127 1.35059 -5.10156 3.2334 -7.80078 6.24805c0 0 -151.601 162.258 -167 303.041c-0.926758 7.34668 -1.53906 14.7881 -1.53906 22.4004c0 99.543 80.6895 180.233 180.231 180.233z" />
    <glyph glyph-name="uniF103" unicode="&#xf103;" 
d="M192.25 63.75l-113.8 -95.5996l49.2998 -32.1504h-127.75v128.65l31.5498 -49.0508l96.7002 112.15v-64h64zM128.25 255.75l-97 112.8l-31.25 -48.3496v127.8h127.8l-48.3496 -31.25l112.8 -97h-64v-64zM383.35 448h128.65v-127.8l-32.1504 49.3496l-95.5996 -113.8v64
h-64l112.15 96.7002zM384.25 127.75l96.0996 -111.9l31.6504 48.8008v-128.65h-128.7l48.8506 31.6504l-111.9 96.0996h64v64zM192 192c0 42.6667 21.3333 64 64 64c42.6667 0 64 -21.3333 64 -64s-21.3333 -64 -64 -64c-42.6667 0 -64 21.3333 -64 64z" />
    <glyph glyph-name="uniF10B" unicode="&#xf10b;" 
d="M32 -32v308h96v-308h-96zM79.6621 317.999c-30.8164 0 -55.6621 24.915 -55.6621 55.6064c0 30.6582 24.8457 55.5703 55.6621 55.5703c30.6963 0 55.6113 -24.9121 55.6113 -55.5703c0 -30.6914 -24.915 -55.6064 -55.6113 -55.6064zM480 -32h-96v149.337
c0 35.7812 -0.486328 81.8008 -49.6592 81.8008c-49.9277 0 -57.3408 -38.9629 -57.3408 -79.2021v-151.936h-97v308h94v-42h1.13281c12.7939 23 43.6406 49.666 90.3135 49.666c97.0771 0 114.553 -64.041 114.553 -147.122v-168.544h0.000976562z" />
    <glyph glyph-name="uniF107" unicode="&#xf107;" 
d="M255.983 441.75c141.387 0 256.017 -114.614 256.017 -256.015c0 -113.064 -73.2832 -208.953 -174.92 -242.871c-12.9922 -2.5 -17.6035 5.46387 -17.6035 12.3096c0 8.39355 0.314453 36.0039 0.314453 70.2285c0 23.8799 -8.18848 39.5049 -17.3799 47.4072
c57.0312 6.33984 116.885 27.9795 116.885 126.324c0 27.9473 -9.90723 50.7988 -26.3135 68.6943c2.63281 6.47559 11.4189 32.5049 -2.54785 67.75c0 0 -21.4541 6.88379 -70.3281 -26.2432c-20.4492 5.67773 -42.3516 8.51758 -64.0908 8.61719
c-21.7705 -0.0996094 -43.6709 -2.93945 -64.0898 -8.61719c-48.9033 33.126 -70.3975 26.2432 -70.3975 26.2432c-13.9277 -35.2451 -5.14258 -61.2744 -2.51074 -67.75c-16.375 -17.8955 -26.3496 -40.7471 -26.3496 -68.6943
c0 -98.0996 59.7617 -120.062 116.608 -126.522c-7.31445 -6.40039 -13.9277 -17.6807 -16.2529 -34.2246c-14.5879 -6.55273 -51.667 -17.8496 -74.5039 21.2715c0 0 -13.5215 24.5723 -39.2119 26.3818c0 0 -25.002 0.322266 -1.75879 -15.5625
c0 0 16.7822 -7.87207 28.4229 -37.4463c0 0 15.0254 -49.7871 86.2363 -34.3174c0.124023 -21.3643 0.345703 -37.4629 0.345703 -43.54c0 -6.78516 -4.67285 -14.6875 -17.4727 -12.3398c-101.736 33.8564 -175.081 129.807 -175.081 242.901
c0 141.4 114.628 256.015 255.983 256.015z" />
    <glyph glyph-name="uniF112" unicode="&#xf112;" 
d="M508.471 276.063c0 0 5.11328 -40.5 5.11328 -80.999v-37.9697c0 -40.499 -5.11328 -80.999 -5.11328 -80.999s-5.00293 -34.4883 -20.3535 -49.6758c-19.4697 -19.9326 -41.293 -20.0322 -51.3008 -21.1992c-71.6475 -5.0625 -179.232 -5.2207 -179.232 -5.2207
s-133.117 1.18848 -174.078 5.02734c-11.3945 2.08887 -36.9775 1.45898 -56.4551 21.3916c-15.3506 15.1885 -20.3457 49.6758 -20.3457 49.6758s-5.12012 40.5 -5.12012 80.999v37.9697c0 40.5 5.12012 81 5.12012 81s4.99512 34.4873 20.3447 49.6748
c19.4775 19.9326 41.292 20.0312 51.3008 21.1982c71.6494 5.06348 179.121 5.06348 179.121 5.06348h0.223633s107.474 0 179.121 -5.06348c10.0078 -1.16699 31.832 -1.26562 51.3008 -21.1982c15.3506 -15.1875 20.3535 -49.6748 20.3535 -49.6748zM204.726 104.293
l138.322 71.457l-138.345 71.9561z" />
    <glyph glyph-name="uniF101" unicode="&#xf101;" 
d="M0 0l113.8 95.5996l-49.2998 32.1504h127.75v-128.65l-31.5498 49.0508l-96.7002 -112.15v64h-64zM64 448l97 -112.8l31.25 48.3496v-127.8h-127.8l48.3496 31.25l-112.8 97h64v64zM448.9 255.75h-128.65v127.8l32.1504 -49.3496l95.5996 113.8v-64h64l-112.15 -96.7002z
M448 -64l-96.0996 111.9l-31.6504 -48.8008v128.65h128.7l-48.8506 -31.6504l111.9 -96.0996h-64v-64zM192 192c0 42.6667 21.3333 64 64 64c42.6667 0 64 -21.3333 64 -64s-21.3333 -64 -64 -64c-42.6667 0 -64 21.3333 -64 64z" />
    <glyph glyph-name="uniF10D" unicode="&#xf10d;" 
d="M480.25 256v-128h-160v-160.5h-128v160.5h-160.5v128h160.5v160h128v-160h160z" />
    <glyph glyph-name="uniF10C" unicode="&#xf10c;" 
d="M32.25 127.5v128h448v-128h-448z" />
  </font>
</defs>
</svg>
