<?xml version="1.0" encoding="utf-8"?>
<!-- Generator: Adobe Illustrator 17.0.2, SVG Export Plug-In . SVG Version: 6.00 Build 0)  -->
<!DOCTYPE svg PUBLIC "-//W3C//DTD SVG 1.1//EN" "http://www.w3.org/Graphics/SVG/1.1/DTD/svg11.dtd">
<svg version="1.1" id="Layer_1" xmlns="http://www.w3.org/2000/svg" xmlns:xlink="http://www.w3.org/1999/xlink" x="0px" y="0px"
	 width="1024px" height="1024px" viewBox="0 0 1024 1024" enable-background="new 0 0 1024 1024" xml:space="preserve">
<g>
	<rect x="192.5" y="64.5" fill="none" width="64" height="128"/>
	<rect x="768.5" y="64.5" fill="none" width="64" height="128"/>
	<rect x="64.5" y="448.5" fill="none" width="896" height="512"/>
	<path fill="#020202" d="M896.5,128.5V0.5h-192v128h-384V0.5h-192v128H0.5v896h366.162h292.245H1024.5v-896H896.5z M768.5,64.5h64
		v128h-64V64.5z M192.5,64.5h64v128h-64V64.5z M960.5,960.5h-896v-512h896V960.5z M960.5,257v128.5h-896V257v-64l64-0.5v64h192v-64
		h384v64l192,0.5v-63.5h64V257z"/>
</g>
</svg>
