<?xml version="1.0" encoding="utf-8"?>
<!-- Generator: Adobe Illustrator 17.0.2, SVG Export Plug-In . SVG Version: 6.00 Build 0)  -->
<!DOCTYPE svg PUBLIC "-//W3C//DTD SVG 1.1//EN" "http://www.w3.org/Graphics/SVG/1.1/DTD/svg11.dtd">
<svg version="1.1" id="Layer_1" xmlns="http://www.w3.org/2000/svg" xmlns:xlink="http://www.w3.org/1999/xlink" x="0px" y="0px"
	 width="1024px" height="1024px" viewBox="0 0 1024 1024" enable-background="new 0 0 1024 1024" xml:space="preserve">
<g>
	<path fill="#010101" d="M967.932,0H57.195C25.981,0,0,24.546,0,55.756v910.741C0,997.7,25.981,1024,57.195,1024H512V665H384V512
		h128V396.106c0-132.229,80.789-204.23,198.748-204.23c56.501,0,110.252,4.207,121.252,6.087V336.15l-83.122,0.037
		c-64.15,0-75.878,30.484-75.878,75.217V512h160.052l0.078,153H673v359h294.932c31.201,0,56.068-26.3,56.068-57.503V55.756
		C1024,24.546,999.134,0,967.932,0z"/>
</g>
</svg>
