<?xml version="1.0" encoding="utf-8"?>
<!-- Generator: Adobe Illustrator 17.0.2, SVG Export Plug-In . SVG Version: 6.00 Build 0)  -->
<!DOCTYPE svg PUBLIC "-//W3C//DTD SVG 1.1//EN" "http://www.w3.org/Graphics/SVG/1.1/DTD/svg11.dtd">
<svg version="1.1" id="Layer_1" xmlns="http://www.w3.org/2000/svg" xmlns:xlink="http://www.w3.org/1999/xlink" x="0px" y="0px"
	 width="1024px" height="1024px" viewBox="0 0 1024 1024" enable-background="new 0 0 1024 1024" xml:space="preserve">
<g>
	<path fill="#010101" d="M486.719,48.5c8.396,5,17.845,12.825,28.348,22.866c10.073,10.49,19.952,23.343,29.607,38.638
		c9.237,14.415,17.421,31.434,24.571,51.091c5.871,19.663,8.813,42.588,8.813,68.81c-0.79,48.063-11.351,86.498-31.676,115.328
		c-9.97,13.991-20.53,26.869-31.688,38.669c-12.347,11.794-25.496,23.818-39.448,36.043c-7.965,8.306-15.34,17.691-22.111,28.174
		c-7.965,10.927-11.955,23.594-11.955,38.016c0,13.985,4.086,25.554,12.263,34.727c6.938,8.749,13.689,16.387,20.235,22.939
		l45.371,37.354c28.2,23.164,52.926,48.705,74.182,76.674c20.029,28.4,30.455,65.535,31.271,111.408
		c0,65.092-28.612,122.765-85.841,173.005c-59.343,51.994-144.985,78.858-256.887,80.612
		c-93.684-0.88-163.633-20.942-209.826-60.184C25.318,926.034,2,882.211,2,831.2c0-24.866,7.586-52.553,22.747-83.079
		c14.723-30.532,41.369-57.358,79.944-80.451c43.322-24.86,88.828-41.427,136.492-49.707c47.215-6.989,86.432-10.901,117.632-11.781
		c-9.642-12.738-18.237-26.357-25.779-40.855c-8.807-14.055-13.201-30.969-13.201-50.741c0-11.858,1.67-21.751,5.023-29.652
		c2.936-8.345,5.659-16.027,8.177-23.049c-15.199,1.747-29.517,2.621-42.975,2.621c-71.195-0.874-125.463-23.363-162.798-67.495
		C88.194,355.956,68.66,308.124,68.66,253.516c0-65.966,27.68-125.803,83.04-179.545c38.029-31.438,77.535-51.693,118.525-61.31
		C310.791,4.375,348.826,0.5,384.318,0.5h267.48l-82.61,48H486.719z M538.392,821.757c0-34.085-11.081-63.807-33.224-89.136
		c-23.421-24.044-60.037-53.536-109.872-88.494c-8.518-0.88-18.52-1.31-30.018-1.31c-6.816-0.874-24.282,0-52.386,2.627
		c-27.686,3.925-56.002,10.259-84.948,19.002c-6.828,2.621-16.406,6.546-28.753,11.8c-12.353,5.672-24.905,13.773-37.682,24.25
		c-12.353,10.914-22.779,24.468-31.303,40.637c-9.803,17.042-14.698,37.573-14.698,61.617c0,47.183,21.288,86.072,63.878,116.675
		c40.457,30.584,95.823,46.309,166.087,47.195c63.03-0.886,111.151-14.865,144.368-41.96
		C522.198,897.994,538.392,863.698,538.392,821.757z M351.903,427.921c35.209-1.304,64.546-14.004,88.025-38.087
		c11.319-17.068,18.59-34.579,21.828-52.527c1.934-17.942,2.91-33.044,2.91-45.307c0-52.97-13.483-106.384-40.457-160.235
		c-12.648-25.824-29.299-46.836-49.951-63.037c-21.083-15.314-45.313-23.415-72.711-24.301
		c-36.243,0.886-66.39,15.552-90.408,44.003c-20.261,29.774-29.96,63.049-29.08,99.813c0,48.589,14.145,99.164,42.468,151.691
		c13.702,24.52,31.393,45.313,53.067,62.381C299.267,419.397,324.037,427.921,351.903,427.921z"/>
	<path fill="#010101" d="M960.5,448.5h-128v-128h-64v128h-128v64h128v128h64v-128h128V448.5z"/>
</g>
</svg>
