<?xml version="1.0" encoding="utf-8"?>
<!-- Generator: Adobe Illustrator 17.0.2, SVG Export Plug-In . SVG Version: 6.00 Build 0)  -->
<!DOCTYPE svg PUBLIC "-//W3C//DTD SVG 1.1//EN" "http://www.w3.org/Graphics/SVG/1.1/DTD/svg11.dtd">
<svg version="1.1" id="Layer_1" xmlns="http://www.w3.org/2000/svg" xmlns:xlink="http://www.w3.org/1999/xlink" x="0px" y="0px"
	 width="1024px" height="1024px" viewBox="0 0 1024 1024" enable-background="new 0 0 1024 1024" xml:space="preserve">
<g>
	<defs>
		<rect id="SVGID_1_" width="1024" height="1024"/>
	</defs>
	<clipPath id="SVGID_2_">
		<use xlink:href="#SVGID_1_"  overflow="visible"/>
	</clipPath>
	<path clip-path="url(#SVGID_2_)" fill-rule="evenodd" clip-rule="evenodd" fill="#231F20" d="M905,432h-88.161
		c6.484,25,10.313,51.189,10.313,78.382c0,173.74-140.813,314.405-314.526,314.405c-173.704,0-314.526-140.595-314.526-314.335
		c0-27.193,3.847-53.452,10.332-78.452H118v431.969C118,885.652,137.041,904,158.788,904h707.686
		C888.221,904,905,885.652,905,863.969V432z M905,156.238C905,134.536,888.221,117,866.474,117H748.546
		C726.826,117,708,134.536,708,156.238v117.973C708,295.913,726.826,314,748.546,314h117.928C888.221,314,905,295.913,905,274.211
		V156.238z M512.627,313.523c-108.581,0-196.589,87.999-196.589,196.58c0,108.563,88.008,196.607,196.589,196.607
		s196.607-88.044,196.607-196.607C709.234,401.522,621.208,313.523,512.627,313.523 M905,1022H119.431
		C54.308,1022,1,968.422,1,903.254V116.925C1,51.793,54.308-1,119.431-1h786.401C970.964-1,1023,51.793,1023,116.925v786.329
		c0,65.168-53.036,118.496-118.168,118.496"/>
</g>
</svg>
