<?xml version="1.0" encoding="utf-8"?>
<!-- Generator: Adobe Illustrator 17.1.0, SVG Export Plug-In . SVG Version: 6.00 Build 0)  -->
<!DOCTYPE svg PUBLIC "-//W3C//DTD SVG 1.1//EN" "http://www.w3.org/Graphics/SVG/1.1/DTD/svg11.dtd">
<svg version="1.1" id="Layer_1" xmlns="http://www.w3.org/2000/svg" xmlns:xlink="http://www.w3.org/1999/xlink" x="0px" y="0px"
	 viewBox="-450 200 1024 1024" enable-background="new -450 200 1024 1024" xml:space="preserve">
<g>
	<path d="M498.1,200h-872.6c-41.7,0-75.5,33.1-75.5,73.8v876.3c0,40.8,33.9,73.9,75.5,73.9h872.6c41.7,0,75.9-33.1,75.9-73.9V273.8
		C574,233.1,539.9,200,498.1,200z M-146,1072h-152V584h152V1072z M-222.4,517.1c-48.8,0-88.2-39.5-88.2-88.1c0-48.6,39.4-88,88.2-88
		c48.6,0,88.1,39.5,88.1,88C-134.3,477.6-173.8,517.1-222.4,517.1z M423,1072H271V834.9c0-56.7-1-129.6-78.9-129.6
		c-79.1,0-91.1,61.7-91.1,125.5V1072H-51V584H94v66h2.7c20.3-37,70-78.6,143.9-78.6c153.8,0,182.3,101.5,182.3,233.1V1072z"/>
</g>
</svg>
